HIERARCHY
ROOT Hips
{
	OFFSET -3.958830 18.904000 13.208200
	CHANNELS 6 Xposition Yposition Zposition Zrotation Yrotation Xrotation 
	JOINT LHipJoint
	{
		OFFSET 0.000000 0.000000 0.000000
		CHANNELS 3 Zrotation Yrotation Xrotation
		JOINT LeftUpLeg
		{
			OFFSET 1.800000 -1.400000 0.085000
			CHANNELS 3 Zrotation Yrotation Xrotation
			JOINT LeftLeg
			{
				OFFSET 2.215000 -6.000000 0.000000
				CHANNELS 3 Zrotation Yrotation Xrotation
				JOINT LeftFoot
				{
					OFFSET 2.500000 -6.900000 0.000000
					CHANNELS 3 Zrotation Yrotation Xrotation
					JOINT LeftToeBase
					{
						OFFSET 0.200000 -0.500000 1.950000
						CHANNELS 3 Zrotation Yrotation Xrotation
						End Site
						{
							OFFSET 0.000000 0.000000 0.000000
						}
					}
				}
			}
		}
	}
	JOINT RHipJoint
	{
		OFFSET 0.000000 0.000000 0.000000
		CHANNELS 3 Zrotation Yrotation Xrotation
		JOINT RightUpLeg
		{
			OFFSET -1.800000 -1.400000 0.085000
			CHANNELS 3 Zrotation Yrotation Xrotation
			JOINT RightLeg
			{
				OFFSET -2.215000 -6.000000 0.000000
				CHANNELS 3 Zrotation Yrotation Xrotation
				JOINT RightFoot
				{
					OFFSET -2.500000 -6.900000 0.000000
					CHANNELS 3 Zrotation Yrotation Xrotation
					JOINT RightToeBase
					{
						OFFSET -0.200000 -0.500000 1.950000
						CHANNELS 3 Zrotation Yrotation Xrotation
						End Site
						{
							OFFSET 0.000000 0.000000 0.000000
						}
					}
				}
			}
		}
	}
	JOINT LowerBack
	{
		OFFSET 0.000000 0.000000 0.000000
		CHANNELS 3 Zrotation Yrotation Xrotation
		JOINT Spine
		{
			OFFSET -0.087000 1.940000 -0.288900
			CHANNELS 3 Zrotation Yrotation Xrotation
			JOINT Spine1
			{
				OFFSET 0.000000 1.950000 0.060000
				CHANNELS 3 Zrotation Yrotation Xrotation
				JOINT Neck
				{
					OFFSET 0.000000 0.000000 0.000000
					CHANNELS 3 Zrotation Yrotation Xrotation
					JOINT Neck1
					{
						OFFSET 0.000000 1.600000 0.340000
						CHANNELS 3 Zrotation Yrotation Xrotation
						JOINT Head
						{
							OFFSET 0.000000 1.667000 -0.240000
							CHANNELS 3 Zrotation Yrotation Xrotation
							End Site
							{
								OFFSET 0.000000 0.000000 0.000000
							}
						}
					}
				}
				JOINT LeftShoulder
				{
					OFFSET 0.000000 0.000000 0.000000
					CHANNELS 3 Zrotation Yrotation Xrotation
					JOINT LeftArm
					{
						OFFSET 2.700000 1.550000 -0.730000
						CHANNELS 3 Zrotation Yrotation Xrotation
						JOINT LeftForeArm
						{
							OFFSET 5.450000 0.000000 0.000000
							CHANNELS 3 Zrotation Yrotation Xrotation
							JOINT LeftHand
							{
								OFFSET 3.450000 0.000000 0.000000
								CHANNELS 3 Zrotation Yrotation Xrotation
								JOINT LeftHandIndex1
								{
									OFFSET 0.750000 0.000000 0.000000
									CHANNELS 3 Zrotation Yrotation Xrotation
									End Site
									{
										OFFSET 0.000000 0.000000 0.000000
									}
								}
							}
						}
					}
				}
				JOINT RightShoulder
				{
					OFFSET 0.000000 0.000000 0.000000
					CHANNELS 3 Zrotation Yrotation Xrotation
					JOINT RightArm
					{
						OFFSET -2.700000 1.550000 -0.730000
						CHANNELS 3 Zrotation Yrotation Xrotation
						JOINT RightForeArm
						{
							OFFSET -5.450000 0.000000 0.000000
							CHANNELS 3 Zrotation Yrotation Xrotation
							JOINT RightHand
							{
								OFFSET -3.450000 0.000000 0.000000
								CHANNELS 3 Zrotation Yrotation Xrotation
								JOINT RightHandIndex1
								{
									OFFSET -0.750000 0.000000 0.000000
									CHANNELS 3 Zrotation Yrotation Xrotation
									End Site
									{
										OFFSET 0.000000 0.000000 0.000000
									}
								}
							}
						}
					}
				}
			}
		}
	}
}
MOTION
Frames: 6
Frame Time: 0.016667
0.919150 16.859250 -1.106580 -0.560307 7.433122 -3.899346 -15.693648 13.825521 3.551726 -1.966425 1.885734 2.264288 -8.858647 5.322421 3.531478 -0.429613 5.113984 3.239203 0.451690 -0.050480 0.253540 17.750460 -9.797443 3.205929 -4.369494 2.348886 -27.252132 4.445344 -2.673984 2.060243 -0.184378 -1.898403 3.794834 -0.006450 0.573910 0.619540 -2.228541 -3.856410 -8.361299 0.183099 -0.445018 19.030777 2.501260 -0.752468 0.307883 2.753417 1.251738 -10.926917 -1.168561 -0.810938 38.748074 -5.284220 0.251860 -11.521020 -20.657471 -9.862703 3.018449 6.677937 3.010663 0.260963 11.571555 -5.667981 -1.299909 -4.032815 2.635106 0.958000 0.303200 0.120800 0.439250 16.164295 9.450315 8.428478 -3.822220 -9.225153 -1.697751 -13.438165 2.622246 -0.016905 2.126765 -1.322731 -0.328680 0.288030 -0.008370 -0.173910 
0.919130 16.859350 -1.106590 -0.570586 7.427154 -3.904133 -15.692854 13.824892 3.551410 -1.958559 1.885015 2.267286 -8.850906 5.319724 3.526098 -0.430202 5.112777 3.238630 0.451940 -0.049310 0.252580 17.751126 -9.797796 3.206836 -4.363256 2.350955 -27.240072 4.460476 -2.674522 2.048477 -0.184721 -1.899732 3.794258 -0.005460 0.572930 0.619820 -2.230589 -3.854123 -8.362078 0.202502 -0.447712 19.040738 2.484216 -0.748375 0.298731 2.755615 1.261511 -10.924447 -1.149676 -0.813720 38.750942 -5.279490 0.254240 -11.541760 -20.667550 -9.865417 3.015204 6.704620 3.012912 0.260405 11.588240 -5.660516 -1.299571 -4.032672 2.635664 0.958160 0.303050 0.121460 0.439310 16.167709 9.444422 8.426197 -3.804018 -9.222498 -1.704555 -13.489919 2.625216 -0.016841 2.126502 -1.323746 -0.328390 0.287240 -0.008440 -0.173870 
0.918950 16.859690 -1.106720 -0.560003 7.405455 -3.915841 -15.692545 13.824576 3.552268 -1.969881 1.889056 2.282690 -8.838425 5.316824 3.521555 -0.431273 5.112601 3.238068 0.452690 -0.048620 0.252340 17.751192 -9.798543 3.206914 -4.375897 2.347510 -27.225730 4.481551 -2.677782 2.042376 -0.185664 -1.901361 3.793833 -0.004900 0.572370 0.620210 -2.230899 -3.852514 -8.363007 0.189855 -0.435947 19.065131 2.469696 -0.734930 0.277954 2.754263 1.266908 -10.923602 -1.144155 -0.810938 38.782442 -5.254150 0.248470 -11.585230 -20.672757 -9.864493 3.009079 6.741386 3.009710 0.260440 11.606719 -5.643026 -1.300587 -4.032374 2.635007 0.959840 0.302420 0.122440 0.439780 16.175683 9.440642 8.426432 -3.765009 -9.223280 -1.721888 -13.598864 2.628851 -0.015714 2.125921 -1.324434 -0.328620 0.287410 -0.008420 -0.174140 
0.918710 16.860320 -1.107120 -0.560417 7.384289 -3.939864 -15.691494 13.825444 3.553377 -1.963823 1.891395 2.303088 -8.832936 5.316649 3.519876 -0.431457 5.113716 3.237557 0.453250 -0.048080 0.252440 17.751564 -9.799966 3.207198 -4.378852 2.345367 -27.200836 4.501028 -2.680701 2.041440 -0.187083 -1.901846 3.793369 -0.004670 0.571790 0.620080 -2.232841 -3.851818 -8.365165 0.197781 -0.430245 19.117863 2.442248 -0.718722 0.239665 2.752184 1.260568 -10.923594 -1.164048 -0.806037 38.828338 -5.206250 0.228120 -11.645410 -20.680551 -9.859706 2.997572 6.790771 2.996038 0.258883 11.625974 -5.610296 -1.301608 -4.031869 2.633079 0.961830 0.300990 0.123710 0.439910 16.186730 9.441345 8.430356 -3.734369 -9.235515 -1.738342 -13.708402 2.622602 -0.012929 2.126151 -1.324292 -0.328870 0.288380 -0.008360 -0.174230 
0.918270 16.861120 -1.107520 -0.549233 7.363447 -3.963461 -15.691704 13.827863 3.554540 -1.966353 1.894503 2.322814 -8.818718 5.316618 3.528040 -0.431764 5.114820 3.236999 0.453380 -0.048250 0.252880 17.750696 -9.800346 3.207015 -4.393219 2.339733 -27.173729 4.522221 -2.683589 2.036826 -0.188793 -1.901844 3.792424 -0.004850 0.571010 0.619790 -2.231190 -3.855835 -8.366795 0.172741 -0.414442 19.173537 2.440344 -0.701640 0.200000 2.747380 1.245238 -10.923916 -1.202873 -0.796734 38.876241 -5.154690 0.206300 -11.725790 -20.685546 -9.851691 2.986670 6.828217 2.984379 0.257799 11.637099 -5.592114 -1.303169 -4.031008 2.630815 0.964290 0.298970 0.125250 0.439500 16.204501 9.448127 8.435593 -3.737402 -9.263995 -1.750457 -13.802397 2.623935 -0.009171 2.126401 -1.323234 -0.329340 0.289790 -0.007790 -0.174570 
0.917930 16.861850 -1.107780 -0.549460 7.336851 -3.988025 -15.691745 13.830498 3.555174 -1.954725 1.895978 2.344002 -8.805753 5.317602 3.535149 -0.432825 5.117660 3.236302 0.452860 -0.049580 0.253000 17.750153 -9.800418 3.207160 -4.384798 2.338705 -27.140569 4.525345 -2.683368 2.022425 -0.189842 -1.900577 3.792781 -0.005220 0.571130 0.618810 -2.230104 -3.860336 -8.368415 0.164558 -0.400670 19.227689 2.438267 -0.681938 0.163211 2.743649 1.220519 -10.921656 -1.256934 -0.784281 38.910778 -5.106710 0.181360 -11.801950 -20.688840 -9.839217 2.972362 6.860191 2.968477 0.258185 11.642938 -5.588018 -1.305540 -4.030664 2.627751 0.966830 0.297330 0.125840 0.439090 16.217999 9.458302 8.440369 -3.769222 -9.296198 -1.754990 -13.847444 2.646870 -0.006429 2.125332 -1.321014 -0.330820 0.292390 -0.006420 -0.175320 
